<svg width="30" height="30" viewBox="0 0 30 30" fill="none" xmlns="http://www.w3.org/2000/svg">
<path d="M16.125 20.6406H17.1C18.075 20.6406 18.885 19.7868 18.885 18.7562C18.885 17.4754 18.42 17.2251 17.655 16.9601L16.14 16.4448V20.6406H16.125Z" fill="#3C4634"/>
<path d="M14.955 2.47086e-05C6.67506 0.029469 -0.0298995 6.63972 0.000100279 14.7664C0.0301001 22.893 6.76505 29.4738 15.045 29.4443C23.3249 29.4149 30.0299 22.8046 29.9999 14.678C29.9699 6.55138 23.2349 -0.0146975 14.955 2.47086e-05ZM18.39 14.8694C19.56 15.2669 21.135 16.1208 21.135 18.7561C21.135 21.0233 19.32 22.8488 17.1 22.8488H16.125V23.7027C16.125 24.3063 15.615 24.8069 15 24.8069C14.385 24.8069 13.875 24.3063 13.875 23.7027V22.8488H13.335C10.875 22.8488 8.88004 20.8172 8.88004 18.3144C8.88004 17.7108 9.39004 17.2102 10.005 17.2102C10.62 17.2102 11.13 17.7108 11.13 18.3144C11.13 19.5952 12.12 20.6405 13.335 20.6405H13.875V15.6644L11.61 14.8694C10.44 14.4719 8.86504 13.618 8.86504 10.9828C8.86504 8.71554 10.68 6.88999 12.9 6.88999H13.875V6.03611C13.875 5.4325 14.385 4.93195 15 4.93195C15.615 4.93195 16.125 5.4325 16.125 6.03611V6.88999H16.665C19.125 6.88999 21.12 8.92165 21.12 11.4244C21.12 12.028 20.61 12.5286 19.995 12.5286C19.38 12.5286 18.87 12.028 18.87 11.4244C18.87 10.1436 17.88 9.09832 16.665 9.09832H16.125V14.0744L18.39 14.8694Z" fill="#3C4634"/>
<path d="M11.1299 10.9977C11.1299 12.2785 11.5949 12.5288 12.3599 12.7938L13.8749 13.309V9.09851H12.8999C11.9249 9.09851 11.1299 9.9524 11.1299 10.9977Z" fill="#3C4634"/>
</svg>
