<svg width="24" height="24" viewBox="0 0 24 24" fill="none" xmlns="http://www.w3.org/2000/svg">
<path d="M12.8999 16.5124H13.6799C14.4599 16.5124 15.1079 15.8293 15.1079 15.0049C15.1079 13.9802 14.7359 13.78 14.1239 13.568L12.9119 13.1558V16.5124H12.8999Z" fill="#3C4634"/>
<path d="M11.9639 1.97668e-05C5.34001 0.0235751 -0.0239195 5.31174 8.02228e-05 11.813C0.0240799 18.3143 5.41201 23.5789 12.0359 23.5553C18.6598 23.5318 24.0238 18.2436 23.9998 11.7423C23.9758 5.24108 18.5878 -0.0117579 11.9639 1.97668e-05ZM14.7119 11.8954C15.6479 12.2134 16.9079 12.8966 16.9079 15.0048C16.9079 16.8185 15.4559 18.2789 13.6799 18.2789H12.8999V18.962C12.8999 19.4449 12.4919 19.8454 11.9999 19.8454C11.5079 19.8454 11.0999 19.4449 11.0999 18.962V18.2789H10.6679C8.69997 18.2789 7.10399 16.6536 7.10399 14.6514C7.10399 14.1685 7.51198 13.7681 8.00398 13.7681C8.49597 13.7681 8.90396 14.1685 8.90396 14.6514C8.90396 15.6761 9.69595 16.5123 10.6679 16.5123H11.0999V12.5314L9.28796 11.8954C8.35197 11.5775 7.09199 10.8943 7.09199 8.78615C7.09199 6.97239 8.54397 5.51196 10.3199 5.51196H11.0999V4.82886C11.0999 4.34597 11.5079 3.94553 11.9999 3.94553C12.4919 3.94553 12.8999 4.34597 12.8999 4.82886V5.51196H13.3319C15.2999 5.51196 16.8959 7.13728 16.8959 9.13948C16.8959 9.62236 16.4879 10.0228 15.9959 10.0228C15.5039 10.0228 15.0959 9.62236 15.0959 9.13948C15.0959 8.11482 14.3039 7.27861 13.3319 7.27861H12.8999V11.2595L14.7119 11.8954Z" fill="#3C4634"/>
<path d="M8.90381 8.79788C8.90381 9.82254 9.2758 10.0228 9.8878 10.2348L11.0998 10.647V7.27856H10.3198C9.5398 7.27856 8.90381 7.96167 8.90381 8.79788Z" fill="#3C4634"/>
</svg>
