<svg width="30" height="30" viewBox="0 0 30 30" fill="none" xmlns="http://www.w3.org/2000/svg">
<path d="M12.5 19.375C11.9875 19.375 11.5625 19.8 11.5625 20.3125V22.1875C11.5625 22.7 11.9875 23.125 12.5 23.125C13.0125 23.125 13.4375 22.7 13.4375 22.1875V20.3125C13.4375 19.8 13.0125 19.375 12.5 19.375Z" fill="#3C4634"/>
<path d="M27.5 26.5625H26.25V12.475C26.25 11.7 25.9 10.975 25.2875 10.5L16.5375 3.69999C15.6375 2.98749 14.3625 2.98749 13.4625 3.69999L4.7125 10.5C4.1 10.975 3.75 11.7 3.75 12.4625L3.6875 26.5625H2.5C1.9875 26.5625 1.5625 26.975 1.5625 27.5C1.5625 28.0125 1.9875 28.4375 2.5 28.4375H27.5C28.0125 28.4375 28.4375 28.0125 28.4375 27.5C28.4375 26.975 28.0125 26.5625 27.5 26.5625ZM13.125 8.43749H16.875C17.3875 8.43749 17.8125 8.86249 17.8125 9.37499C17.8125 9.88749 17.3875 10.3125 16.875 10.3125H13.125C12.6125 10.3125 12.1875 9.88749 12.1875 9.37499C12.1875 8.86249 12.6125 8.43749 13.125 8.43749ZM21.25 26.5625H8.75V15.625C8.75 14.5875 9.5875 13.75 10.625 13.75H19.375C20.4125 13.75 21.25 14.5875 21.25 15.625V26.5625Z" fill="#3C4634"/>
</svg>
