      <svg
        className="address-logo"
        width="28"
        height="28"
        viewBox="0 0 48 48"
        fill="none"
        xmlns="http://www.w3.org/2000/svg"
      >
        <path
          d="M15.4163 7.0601C15.7038 6.92326 16.0001 7.16016 16.0001 7.47848V35.1428C16.0001 35.3661 15.8505 35.5586 15.6429 35.6408C15.5071 35.6945 15.3806 35.7542 15.2601 35.82L10.5601 38.5C7.28008 40.38 4.58008 38.82 4.58008 35.02V15.56C4.58008 14.3 5.48008 12.74 6.60008 12.1L15.2601 7.13999C15.311 7.1122 15.363 7.08549 15.4163 7.0601Z"
          fill="#3C4634"
        />
        <path
          d="M29.7219 12.3423C29.8922 12.4267 30 12.6003 30 12.7904V40.2029C30 40.5714 29.615 40.8133 29.283 40.6533L19.783 36.0764C19.61 35.993 19.5 35.8179 19.5 35.6259V8.0856C19.5 7.71475 19.8896 7.47296 20.2219 7.63754L29.7219 12.3423Z"
          fill="#3C4634"
        />
        <path
          d="M44 12.98V32.44C44 33.7 43.1 35.26 41.98 35.9L34.2486 40.331C33.9153 40.522 33.5 40.2813 33.5 39.8972V12.3703C33.5 12.1908 33.5962 12.0251 33.7521 11.9361L38.02 9.50001C41.3 7.62001 44 9.18001 44 12.98Z"
          fill="#3C4634"
        />
      </svg>