<svg
            className="review-star"
            width="24"
            height="24"
            viewBox="0 0 33 33"
            fill="none"
            xmlns="http://www.w3.org/2000/svg"
          >
            <path
              d="M19.3671 2.38535L22.2754 8.24099C22.6673 9.05081 23.7192 9.81911 24.6062 9.98522L29.8659 10.8573C33.228 11.418 34.0118 13.8682 31.5985 16.3185L27.4939 20.4506C26.8132 21.1359 26.4213 22.4856 26.6482 23.4615L27.8239 28.5696C28.7521 32.598 26.6069 34.1761 23.0798 32.0581L18.1501 29.1095C17.2632 28.5696 15.7781 28.5696 14.8911 29.1095L9.96143 32.0581C6.43431 34.1553 4.28917 32.598 5.21735 28.5696L6.39306 23.4615C6.5787 22.4648 6.1868 21.1151 5.50612 20.4299L1.40147 16.2977C-1.01182 13.8682 -0.228017 11.418 3.13409 10.8366L8.39382 9.96446C9.28076 9.81911 10.3327 9.03005 10.7246 8.22023L13.6329 2.36458C15.2212 -0.791647 17.7788 -0.791647 19.3671 2.38535Z"
              fill="#3C4634"
            />
          </svg>