          <svg
            className="share-icon"
            width="24"
            height="24"
            viewBox="0 0 31 30"
            fill="none"
            xmlns="http://www.w3.org/2000/svg"
          >
            <g clipPath="url(#clip0_145_870)">
              <path
                d="M20.625 4.68748C20.6249 3.58767 21.0115 2.52282 21.7171 1.67925C22.4228 0.835678 23.4026 0.267098 24.4852 0.0729855C25.5677 -0.121126 26.6841 0.071591 27.6389 0.61742C28.5937 1.16325 29.3262 2.02743 29.7082 3.05877C30.0902 4.09012 30.0974 5.22294 29.7285 6.25905C29.3596 7.29516 28.6382 8.16858 27.6904 8.7265C26.7426 9.28441 25.6288 9.49129 24.5439 9.31095C23.4589 9.13061 22.472 8.57452 21.7556 7.73998L9.15938 13.59C9.44896 14.5077 9.44896 15.4923 9.15938 16.41L21.7556 22.26C22.5128 21.3793 23.57 20.8112 24.7222 20.6656C25.8745 20.52 27.0398 20.8073 27.9922 21.4719C28.9447 22.1365 29.6165 23.131 29.8775 24.2627C30.1385 25.3944 29.9701 26.5827 29.4049 27.5973C28.8396 28.6119 27.9179 29.3805 26.8183 29.7543C25.7186 30.128 24.5194 30.0802 23.453 29.6201C22.3866 29.1601 21.529 28.3205 21.0463 27.2641C20.5637 26.2077 20.4904 25.0098 20.8406 23.9025L8.24438 18.0525C7.62082 18.7792 6.78966 19.2975 5.86272 19.5376C4.93577 19.7778 3.9575 19.7283 3.05952 19.3959C2.16153 19.0634 1.3869 18.4639 0.839835 17.678C0.292769 16.8921 -0.000488281 15.9575 -0.000488281 15C-0.000488281 14.0424 0.292769 13.1078 0.839835 12.3219C1.3869 11.536 2.16153 10.9365 3.05952 10.6041C3.9575 10.2716 4.93577 10.2221 5.86272 10.4623C6.78966 10.7025 7.62082 11.2208 8.24438 11.9475L20.8406 6.09748C20.6972 5.64123 20.6245 5.16573 20.625 4.68748Z"
                fill="#3C4634"
              />
            </g>
            <defs>
              <clipPath id="clip0_145_870">
                <rect width="30" height="30" fill="white" />
              </clipPath>
            </defs>
          </svg>